# xmcd
#
# Track frame offsets: 
#        150
#        20490
#        44985
#        69795
#        79850
#        101066
#        114907
#        123814
#        136889
#        147048
#        173059
#        194987
#
# Disc length: 2981 seconds
#
# Revision: 0
# Processed by: cddbd v1.5.2PL0 Copyright (c) Steve Scherf et al.
# Submitted via: ExactAudioCopy v1.3
#
DISCID=a70ba30c
DTITLE=Matter - Paroxysmal
DYEAR=2015
DGENRE=Electronic
TTITLE0=Fluid
TTITLE1=Depth
TTITLE2=Surge
TTITLE3=Maar
TTITLE4=Pressure
TTITLE5=Amplitude
TTITLE6=Exsolution
TTITLE7=Chamber
TTITLE8=Stone
TTITLE9=Column
TTITLE10=Scoria
TTITLE11=Ash
EXTD=
EXTT0=
EXTT1=
EXTT2=
EXTT3=
EXTT4=
EXTT5=
EXTT6=
EXTT7=
EXTT8=
EXTT9=
EXTT10=
EXTT11=
PLAYORDER=
